# xmcd
#
# Track frame offsets:
#	150
#	12478
#	27726
#	41798
#	60040
#	77765
#	90531
#	107912
#	126889
#	138108
#	151296
#	167656
#	177478
#	191608
#	206745
#	220413
#	237388
#	253920
#	274903
#	292875
#
# Disc length: 4158 seconds
# Revision: 0
# Processed by: cddbd v1.5.2PL0 Copyright (c) Steve Scherf et al.
# Submitted via: dBpowerAMP V12.0
#
DISCID=26103c14
DTITLE=Whitaker Sisters - Brittney and Alaina
DYEAR=2006
DGENRE=Country
TTITLE0=Sweet Dreams
TTITLE1=Independence Day
TTITLE2=Cryin' Time
TTITLE3=When I Think About Cheatin'
TTITLE4=If I Were You
TTITLE5=Nothin' 'bout Love Makes Sense
TTITLE6=Unchained Melody
TTITLE7=She's in love with the Boy
TTITLE8=Don't It Make My Brown Eyes Blue
TTITLE9=Don't Waste Your Heart
TTITLE10=If You Can
TTITLE11=When Will I Be Loved
TTITLE12=Emotional Girl
TTITLE13=Here For the Party
TTITLE14=You Say You Will
TTITLE15=What Happened
TTITLE16=Holdin' You
TTITLE17=Bridge Over Troubled Waters
TTITLE18=When the Lights Go Down
TTITLE19=Welcome Home
EXTD=
EXTT0=
EXTT1=
EXTT2=
EXTT3=
EXTT4=
EXTT5=
EXTT6=
EXTT7=
EXTT8=
EXTT9=
EXTT10=
EXTT11=
EXTT12=
EXTT13=
EXTT14=
EXTT15=
EXTT16=
EXTT17=
EXTT18=
EXTT19=
PLAYORDER=
